<svg width="76" height="76" viewBox="0 0 76 76" fill="none" xmlns="http://www.w3.org/2000/svg">
<path d="M37.7594 0C16.9389 0 0 16.9389 0 37.7594C0 58.58 16.9389 75.5189 37.7594 75.5189C58.58 75.5189 75.5189 58.58 75.5189 37.7594C75.5189 16.9389 58.58 0 37.7594 0ZM37.7594 67.967C21.1038 67.967 7.55189 54.4151 7.55189 37.7594C7.55189 21.1038 21.1038 7.55189 37.7594 7.55189C54.4151 7.55189 67.967 21.1038 67.967 37.7594C67.967 54.4151 54.4151 67.967 37.7594 67.967Z" fill="#80FF60"/>
<path d="M27.0772 48.4378C27.7758 49.1325 28.5272 49.7556 29.3126 50.2842C30.132 50.8355 30.9929 51.3037 31.8802 51.6775C32.8016 52.0664 33.7531 52.361 34.7084 52.5573C36.7134 52.9651 38.8129 52.9651 40.8103 52.5573C41.7694 52.361 42.721 52.0664 43.6423 51.6775C44.5259 51.3037 45.3905 50.8355 46.2062 50.2842C46.9953 49.7518 47.7467 49.1325 48.4453 48.4378C49.1287 47.7543 49.7518 47.0029 50.2879 46.2024L56.5485 50.4277C55.7366 51.6284 54.804 52.7574 53.7769 53.7845C52.7461 54.8153 51.6171 55.748 50.4277 56.5447C49.208 57.3679 47.9129 58.0702 46.5762 58.6328C45.198 59.2143 43.7669 59.6599 42.3169 59.9544C40.8217 60.2602 39.2848 60.415 37.7594 60.415C36.2339 60.415 34.6971 60.2602 33.198 59.9544C31.7518 59.6599 30.3208 59.2143 28.9425 58.6328C27.6059 58.0702 26.3145 57.3679 25.0873 56.5447C23.9054 55.7442 22.7764 54.8153 21.7418 53.7845C20.7148 52.7612 19.7783 51.6284 18.9703 50.4277L25.2308 46.2024C25.7707 47.0029 26.3938 47.7543 27.0772 48.4378Z" fill="#80FF60"/>
<path d="M24.5437 37.7594C27.6718 37.7594 30.2076 35.2236 30.2076 32.0955C30.2076 28.9674 27.6718 26.4316 24.5437 26.4316C21.4156 26.4316 18.8798 28.9674 18.8798 32.0955C18.8798 35.2236 21.4156 37.7594 24.5437 37.7594Z" fill="#80FF60"/>
<path d="M50.9488 37.7065C54.0623 37.7065 56.5862 35.1826 56.5862 32.0691C56.5862 28.9556 54.0623 26.4316 50.9488 26.4316C47.8353 26.4316 45.3113 28.9556 45.3113 32.0691C45.3113 35.1826 47.8353 37.7065 50.9488 37.7065Z" fill="#80FF60"/>
</svg>
