<svg width="76" height="76" viewBox="0 0 76 76" fill="none" xmlns="http://www.w3.org/2000/svg">
<path d="M37.7594 0C16.9389 0 0 16.9389 0 37.7594C0 58.58 16.9389 75.5189 37.7594 75.5189C58.58 75.5189 75.5189 58.58 75.5189 37.7594C75.5189 16.9389 58.58 0 37.7594 0ZM37.7594 67.967C21.1038 67.967 7.55189 54.4151 7.55189 37.7594C7.55189 21.1038 21.1038 7.55189 37.7594 7.55189C54.4151 7.55189 67.967 21.1038 67.967 37.7594C67.967 54.4151 54.4151 67.967 37.7594 67.967Z" fill="#FF6060"/>
<path d="M27.0772 58.1797C27.7758 57.485 28.5272 56.8619 29.3126 56.3333C30.132 55.782 30.9929 55.3138 31.8802 54.94C32.8016 54.5511 33.7531 54.2565 34.7084 54.0602C36.7134 53.6524 38.8129 53.6524 40.8103 54.0602C41.7694 54.2565 42.721 54.5511 43.6423 54.94C44.5259 55.3138 45.3905 55.782 46.2062 56.3333C46.9953 56.8657 47.7467 57.485 48.4453 58.1797C49.1287 58.8632 49.7518 59.6146 50.2879 60.4151L56.5485 56.1898C55.7366 54.9891 54.804 53.8601 53.7769 52.833C52.7461 51.8022 51.6171 50.8695 50.4277 50.0728C49.208 49.2496 47.9129 48.5473 46.5762 47.9847C45.198 47.4032 43.7669 46.9576 42.3169 46.6631C40.8217 46.3573 39.2848 46.2024 37.7594 46.2024C36.2339 46.2024 34.6971 46.3573 33.198 46.6631C31.7518 46.9576 30.3208 47.4032 28.9425 47.9847C27.6059 48.5473 26.3145 49.2496 25.0873 50.0728C23.9054 50.8733 22.7764 51.8022 21.7418 52.833C20.7148 53.8563 19.7783 54.9891 18.9703 56.1898L25.2308 60.4151C25.7707 59.6146 26.3938 58.8632 27.0772 58.1797Z" fill="#FF6060"/>
<path d="M24.5437 37.7594C27.6718 37.7594 30.2076 35.2236 30.2076 32.0955C30.2076 28.9674 27.6718 26.4316 24.5437 26.4316C21.4156 26.4316 18.8798 28.9674 18.8798 32.0955C18.8798 35.2236 21.4156 37.7594 24.5437 37.7594Z" fill="#FF6060"/>
<path d="M50.9488 37.7065C54.0623 37.7065 56.5862 35.1826 56.5862 32.0691C56.5862 28.9556 54.0623 26.4316 50.9488 26.4316C47.8353 26.4316 45.3113 28.9556 45.3113 32.0691C45.3113 35.1826 47.8353 37.7065 50.9488 37.7065Z" fill="#FF6060"/>
</svg>
