<svg width="76" height="76" viewBox="0 0 76 76" fill="none" xmlns="http://www.w3.org/2000/svg">
<path d="M37.7594 0C16.9389 0 0 16.9389 0 37.7594C0 58.58 16.9389 75.5189 37.7594 75.5189C58.58 75.5189 75.5189 58.58 75.5189 37.7594C75.5189 16.9389 58.58 0 37.7594 0ZM37.7594 67.967C21.1038 67.967 7.55189 54.4151 7.55189 37.7594C7.55189 21.1038 21.1038 7.55189 37.7594 7.55189C54.4151 7.55189 67.967 21.1038 67.967 37.7594C67.967 54.4151 54.4151 67.967 37.7594 67.967Z" fill="#D9D9D9"/>
<path d="M19 46H57V54H19V46Z" fill="#D9D9D9"/>
<path d="M24.5437 37.7594C27.6718 37.7594 30.2076 35.2236 30.2076 32.0955C30.2076 28.9674 27.6718 26.4316 24.5437 26.4316C21.4156 26.4316 18.8798 28.9674 18.8798 32.0955C18.8798 35.2236 21.4156 37.7594 24.5437 37.7594Z" fill="#D9D9D9"/>
<path d="M50.9488 37.7065C54.0623 37.7065 56.5862 35.1826 56.5862 32.0691C56.5862 28.9556 54.0623 26.4316 50.9488 26.4316C47.8353 26.4316 45.3113 28.9556 45.3113 32.0691C45.3113 35.1826 47.8353 37.7065 50.9488 37.7065Z" fill="#D9D9D9"/>
</svg>
